<?xml version="1.0" encoding="UTF-8" standalone="no"?>
<!DOCTYPE svg PUBLIC "-//W3C//DTD SVG 1.1//EN" "http://www.w3.org/Graphics/SVG/1.1/DTD/svg11.dtd">
<svg width="100%" height="100%" viewBox="0 0 480 320" version="1.1" xmlns="http://www.w3.org/2000/svg" xmlns:xlink="http://www.w3.org/1999/xlink" xml:space="preserve" xmlns:serif="http://www.serif.com/" style="fill-rule:evenodd;clip-rule:evenodd;stroke-linejoin:round;stroke-miterlimit:2;">
    <rect x="0" y="0" width="480" height="320" style="fill:rgb(37,23,50);"/>
    <g transform="matrix(1.31748,0,0,1.31748,-76.1952,-50.7968)">
        <g transform="matrix(1,0,0,1,42.1855,34.4854)">
            <circle cx="197.814" cy="125.515" r="59.085" style="fill:rgb(132,104,226);"/>
        </g>
        <g transform="matrix(0.854108,0,0,0.854108,71.0452,52.797)">
            <circle cx="197.814" cy="125.515" r="59.085" style="fill:rgb(37,23,50);"/>
        </g>
        <g transform="matrix(0.708215,0,0,0.708215,99.9048,71.1087)">
            <circle cx="197.814" cy="125.515" r="59.085" style="fill:rgb(194,176,253);"/>
        </g>
        <g transform="matrix(0.554065,0,0,0.554065,130.398,90.4568)">
            <circle cx="197.814" cy="125.515" r="59.085" style="fill:rgb(37,23,50);"/>
        </g>
        <g transform="matrix(0.391706,0,0,0.391706,162.515,110.835)">
            <circle cx="197.814" cy="125.515" r="59.085" style="fill:rgb(208,196,245);"/>
        </g>
        <g transform="matrix(0.251613,0,0,0.251613,190.227,128.419)">
            <circle cx="197.814" cy="125.515" r="59.085" style="fill:rgb(7,0,28);"/>
        </g>
    </g>
    <g transform="matrix(1,0,0,1,0,-10)">
        <g transform="matrix(0.244721,0,0,0.244721,319.169,17.9273)">
            <g transform="matrix(1,0,0,1,42.1855,34.4854)">
                <circle cx="197.814" cy="125.515" r="59.085" style="fill:rgb(132,104,226);"/>
            </g>
            <g transform="matrix(0.854108,0,0,0.854108,71.0452,52.797)">
                <circle cx="197.814" cy="125.515" r="59.085" style="fill:rgb(37,23,50);"/>
            </g>
            <g transform="matrix(0.708215,0,0,0.708215,99.9048,71.1087)">
                <circle cx="197.814" cy="125.515" r="59.085" style="fill:rgb(194,176,253);"/>
            </g>
            <g transform="matrix(0.554065,0,0,0.554065,130.398,90.4568)">
                <circle cx="197.814" cy="125.515" r="59.085" style="fill:rgb(37,23,50);"/>
            </g>
            <g transform="matrix(0.391706,0,0,0.391706,162.515,110.835)">
                <circle cx="197.814" cy="125.515" r="59.085" style="fill:rgb(208,196,245);"/>
            </g>
            <g transform="matrix(0.251613,0,0,0.251613,190.227,128.419)">
                <circle cx="197.814" cy="125.515" r="59.085" style="fill:rgb(7,0,28);"/>
            </g>
        </g>
        <g transform="matrix(40,0,0,40,55.6157,71.0627)">
            <path d="M0.518,0.006L0.593,0.006L0.826,-0.699L0.72,-0.699C0.668,-0.54 0.607,-0.362 0.552,-0.195L0.438,-0.521L0.357,-0.521L0.242,-0.194L0.075,-0.699L-0.03,-0.699L0.203,0.006L0.278,0.006C0.314,-0.1 0.357,-0.219 0.397,-0.333L0.518,0.006Z" style="fill:white;fill-rule:nonzero;"/>
        </g>
        <g transform="matrix(40,0,0,40,98.1654,71.0627)">
            <path d="M0.609,-0.35C0.609,-0.278 0.58,-0.215 0.535,-0.169C0.488,-0.122 0.423,-0.093 0.354,-0.093C0.285,-0.093 0.221,-0.122 0.175,-0.169C0.129,-0.215 0.1,-0.279 0.1,-0.35C0.1,-0.421 0.129,-0.485 0.175,-0.531C0.221,-0.578 0.285,-0.607 0.354,-0.607C0.423,-0.607 0.488,-0.578 0.535,-0.531C0.58,-0.485 0.609,-0.422 0.609,-0.35ZM-0.002,-0.35C-0.002,-0.251 0.039,-0.162 0.102,-0.097C0.166,-0.031 0.256,0.009 0.354,0.009C0.453,0.009 0.542,-0.031 0.607,-0.097C0.67,-0.162 0.711,-0.251 0.711,-0.35C0.711,-0.449 0.67,-0.538 0.607,-0.603C0.542,-0.668 0.453,-0.709 0.354,-0.709C0.256,-0.709 0.166,-0.668 0.102,-0.603C0.039,-0.538 -0.002,-0.449 -0.002,-0.35Z" style="fill:white;fill-rule:nonzero;"/>
        </g>
        <g transform="matrix(40,0,0,40,138.235,71.0627)">
            <path d="M0.154,-0.307L0.409,-0L0.54,-0L0.319,-0.263C0.439,-0.284 0.5,-0.378 0.5,-0.477C0.5,-0.588 0.424,-0.7 0.272,-0.7L0.017,-0.7L0.017,-0L0.117,-0L0.117,-0.598L0.272,-0.598C0.357,-0.598 0.399,-0.537 0.399,-0.477C0.399,-0.416 0.357,-0.355 0.272,-0.355L0.154,-0.355L0.154,-0.307Z" style="fill:white;fill-rule:nonzero;"/>
        </g>
        <g transform="matrix(40,0,0,40,169.065,71.0627)">
            <path d="M0.12,-0.493L0.303,-0.221L0.36,-0.221L0.543,-0.493L0.543,-0L0.643,-0L0.643,-0.7L0.563,-0.7L0.332,-0.36L0.101,-0.7L0.019,-0.7L0.019,-0L0.12,-0L0.12,-0.493Z" style="fill:white;fill-rule:nonzero;"/>
        </g>
        <g transform="matrix(40,0,0,40,207.094,71.0627)">
            <path d="M0.116,-0.699L0.015,-0.699L0.015,-0L0.116,-0L0.116,-0.304L0.412,-0.304L0.412,-0L0.514,-0L0.514,-0.699L0.412,-0.699L0.412,-0.404L0.116,-0.404L0.116,-0.699Z" style="fill:white;fill-rule:nonzero;"/>
        </g>
        <g transform="matrix(40,0,0,40,240.204,71.0627)">
            <path d="M0.609,-0.35C0.609,-0.278 0.58,-0.215 0.535,-0.169C0.488,-0.122 0.423,-0.093 0.354,-0.093C0.285,-0.093 0.221,-0.122 0.175,-0.169C0.129,-0.215 0.1,-0.279 0.1,-0.35C0.1,-0.421 0.129,-0.485 0.175,-0.531C0.221,-0.578 0.285,-0.607 0.354,-0.607C0.423,-0.607 0.488,-0.578 0.535,-0.531C0.58,-0.485 0.609,-0.422 0.609,-0.35ZM-0.002,-0.35C-0.002,-0.251 0.039,-0.162 0.102,-0.097C0.166,-0.031 0.256,0.009 0.354,0.009C0.453,0.009 0.542,-0.031 0.607,-0.097C0.67,-0.162 0.711,-0.251 0.711,-0.35C0.711,-0.449 0.67,-0.538 0.607,-0.603C0.542,-0.668 0.453,-0.709 0.354,-0.709C0.256,-0.709 0.166,-0.668 0.102,-0.603C0.039,-0.538 -0.002,-0.449 -0.002,-0.35Z" style="fill:white;fill-rule:nonzero;"/>
        </g>
        <g transform="matrix(40,0,0,40,280.274,71.0627)">
            <path d="M0.114,-0.699L0.013,-0.699L0.013,-0L0.443,-0L0.443,-0.101L0.114,-0.101L0.114,-0.699Z" style="fill:white;fill-rule:nonzero;"/>
        </g>
        <g transform="matrix(40,0,0,40,308.823,71.0627)">
            <path d="M0.114,-0.299L0.431,-0.299L0.431,-0.401L0.114,-0.401L0.114,-0.598L0.438,-0.598L0.438,-0.699L0.012,-0.699L0.012,-0L0.439,-0L0.439,-0.101L0.114,-0.101L0.114,-0.299Z" style="fill:white;fill-rule:nonzero;"/>
        </g>
        <g transform="matrix(40,0,0,40,403.794,71.0627)">
            <path d="M0.498,-0.523C0.48,-0.651 0.368,-0.707 0.26,-0.707C0.179,-0.707 0.095,-0.675 0.048,-0.614C0.018,-0.575 0.006,-0.528 0.01,-0.481L0.01,-0.482C0.021,-0.336 0.149,-0.312 0.258,-0.301C0.328,-0.294 0.4,-0.285 0.412,-0.232C0.414,-0.223 0.415,-0.215 0.415,-0.208C0.415,-0.136 0.333,-0.094 0.258,-0.094C0.193,-0.094 0.114,-0.128 0.107,-0.193L0.107,-0.189L0.106,-0.204L0.004,-0.202L0.005,-0.183C0.018,-0.058 0.149,0.006 0.257,0.006C0.383,0.006 0.517,-0.072 0.517,-0.207C0.517,-0.221 0.515,-0.238 0.512,-0.253C0.485,-0.365 0.366,-0.39 0.27,-0.402C0.195,-0.409 0.116,-0.418 0.111,-0.49C0.109,-0.514 0.114,-0.537 0.128,-0.555C0.156,-0.591 0.208,-0.607 0.255,-0.608C0.316,-0.609 0.384,-0.582 0.398,-0.519L0.498,-0.523Z" style="fill:rgb(148,125,222);fill-rule:nonzero;"/>
        </g>
    </g>
    <g transform="matrix(0.506945,0,0,0.506945,14.7261,233.202)">
        <text x="293.926px" y="104.905px" style="font-family:'Code-Bold', 'Code Bold';font-weight:700;font-size:39.452px;fill:white;">v<tspan x="327.292px 355.372px 385.503px 418.633px 441.741px 481.262px 504.46px 540.145px 560.374px 576.144px " y="104.905px 104.905px 104.905px 104.905px 104.905px 104.905px 104.905px 104.905px 104.905px 104.905px ">ersion 1.0</tspan></text>
    </g>
</svg>
